<mxfile host="app.diagrams.net" modified="2024-04-07T20:07:53.558Z" agent="Mozilla/5.0 (X11; Linux x86_64; rv:123.0) Gecko/20100101 Firefox/123.0" etag="llSOvKH4bYndW26LntF9" version="24.2.2" type="device">
  <diagram name="Страница — 1" id="dJ2RGDc316PWSBuT6vaZ">
    <mxGraphModel dx="1434" dy="790" grid="1" gridSize="10" guides="1" tooltips="1" connect="1" arrows="1" fold="1" page="1" pageScale="1" pageWidth="827" pageHeight="1169" math="0" shadow="0">
      <root>
        <mxCell id="0" />
        <mxCell id="1" parent="0" />
        <mxCell id="dlJ6QBAWJ_lvMbcuCEq7-41" style="edgeStyle=orthogonalEdgeStyle;rounded=0;orthogonalLoop=1;jettySize=auto;html=1;entryX=0;entryY=0.5;entryDx=0;entryDy=0;" edge="1" parent="1" source="dlJ6QBAWJ_lvMbcuCEq7-36" target="dlJ6QBAWJ_lvMbcuCEq7-38">
          <mxGeometry relative="1" as="geometry" />
        </mxCell>
        <mxCell id="dlJ6QBAWJ_lvMbcuCEq7-36" value="&lt;pre&gt;&lt;code data-sourcepos=&quot;3:1-51:42&quot; class=&quot;code-container no-decoration-radius&quot; data-test-id=&quot;code-content&quot; role=&quot;text&quot;&gt;Пользовательский интерфейс&lt;/code&gt;&lt;/pre&gt;" style="rounded=1;whiteSpace=wrap;html=1;" vertex="1" parent="1">
          <mxGeometry x="120" y="180" width="200" height="60" as="geometry" />
        </mxCell>
        <mxCell id="dlJ6QBAWJ_lvMbcuCEq7-40" style="edgeStyle=orthogonalEdgeStyle;rounded=0;orthogonalLoop=1;jettySize=auto;html=1;exitX=0.5;exitY=0;exitDx=0;exitDy=0;" edge="1" parent="1" source="dlJ6QBAWJ_lvMbcuCEq7-39" target="dlJ6QBAWJ_lvMbcuCEq7-38">
          <mxGeometry relative="1" as="geometry" />
        </mxCell>
        <mxCell id="dlJ6QBAWJ_lvMbcuCEq7-38" value="&lt;pre&gt;&lt;code data-sourcepos=&quot;3:1-51:42&quot; class=&quot;code-container no-decoration-radius&quot; data-test-id=&quot;code-content&quot; role=&quot;text&quot;&gt;Серверная часть&lt;/code&gt;&lt;/pre&gt;" style="rounded=1;whiteSpace=wrap;html=1;" vertex="1" parent="1">
          <mxGeometry x="360" y="180" width="200" height="60" as="geometry" />
        </mxCell>
        <mxCell id="dlJ6QBAWJ_lvMbcuCEq7-48" style="edgeStyle=orthogonalEdgeStyle;rounded=0;orthogonalLoop=1;jettySize=auto;html=1;" edge="1" parent="1" source="dlJ6QBAWJ_lvMbcuCEq7-39" target="dlJ6QBAWJ_lvMbcuCEq7-43">
          <mxGeometry relative="1" as="geometry" />
        </mxCell>
        <mxCell id="dlJ6QBAWJ_lvMbcuCEq7-53" style="edgeStyle=orthogonalEdgeStyle;rounded=0;orthogonalLoop=1;jettySize=auto;html=1;entryX=0;entryY=0.5;entryDx=0;entryDy=0;" edge="1" parent="1" source="dlJ6QBAWJ_lvMbcuCEq7-39" target="dlJ6QBAWJ_lvMbcuCEq7-45">
          <mxGeometry relative="1" as="geometry">
            <Array as="points">
              <mxPoint x="330" y="300" />
              <mxPoint x="330" y="520" />
            </Array>
          </mxGeometry>
        </mxCell>
        <mxCell id="dlJ6QBAWJ_lvMbcuCEq7-39" value="&lt;pre&gt;&lt;code data-sourcepos=&quot;3:1-51:42&quot; class=&quot;code-container no-decoration-radius&quot; data-test-id=&quot;code-content&quot; role=&quot;text&quot;&gt;API OpenWeatherMap&lt;/code&gt;&lt;/pre&gt;" style="rounded=1;whiteSpace=wrap;html=1;" vertex="1" parent="1">
          <mxGeometry x="360" y="270" width="200" height="60" as="geometry" />
        </mxCell>
        <mxCell id="dlJ6QBAWJ_lvMbcuCEq7-43" value="База данных и хранилище данных" style="rounded=1;whiteSpace=wrap;html=1;" vertex="1" parent="1">
          <mxGeometry x="360" y="360" width="200" height="60" as="geometry" />
        </mxCell>
        <mxCell id="dlJ6QBAWJ_lvMbcuCEq7-49" style="edgeStyle=orthogonalEdgeStyle;rounded=0;orthogonalLoop=1;jettySize=auto;html=1;" edge="1" parent="1" source="dlJ6QBAWJ_lvMbcuCEq7-44" target="dlJ6QBAWJ_lvMbcuCEq7-46">
          <mxGeometry relative="1" as="geometry" />
        </mxCell>
        <mxCell id="dlJ6QBAWJ_lvMbcuCEq7-51" style="edgeStyle=orthogonalEdgeStyle;rounded=0;orthogonalLoop=1;jettySize=auto;html=1;entryX=0;entryY=0.5;entryDx=0;entryDy=0;" edge="1" parent="1" source="dlJ6QBAWJ_lvMbcuCEq7-44" target="dlJ6QBAWJ_lvMbcuCEq7-36">
          <mxGeometry relative="1" as="geometry">
            <Array as="points">
              <mxPoint x="90" y="630" />
              <mxPoint x="90" y="210" />
            </Array>
          </mxGeometry>
        </mxCell>
        <mxCell id="dlJ6QBAWJ_lvMbcuCEq7-44" value="Разработчик" style="rounded=1;whiteSpace=wrap;html=1;" vertex="1" parent="1">
          <mxGeometry x="360" y="600" width="200" height="60" as="geometry" />
        </mxCell>
        <mxCell id="dlJ6QBAWJ_lvMbcuCEq7-52" style="edgeStyle=orthogonalEdgeStyle;rounded=0;orthogonalLoop=1;jettySize=auto;html=1;entryX=1;entryY=0.5;entryDx=0;entryDy=0;" edge="1" parent="1" source="dlJ6QBAWJ_lvMbcuCEq7-45" target="dlJ6QBAWJ_lvMbcuCEq7-38">
          <mxGeometry relative="1" as="geometry">
            <Array as="points">
              <mxPoint x="590" y="520" />
              <mxPoint x="590" y="210" />
            </Array>
          </mxGeometry>
        </mxCell>
        <mxCell id="dlJ6QBAWJ_lvMbcuCEq7-45" value="Система кэширования" style="rounded=1;whiteSpace=wrap;html=1;" vertex="1" parent="1">
          <mxGeometry x="360" y="490" width="200" height="60" as="geometry" />
        </mxCell>
        <mxCell id="dlJ6QBAWJ_lvMbcuCEq7-46" value="Инструменты разработки" style="rounded=1;whiteSpace=wrap;html=1;" vertex="1" parent="1">
          <mxGeometry x="360" y="690" width="200" height="60" as="geometry" />
        </mxCell>
        <mxCell id="dlJ6QBAWJ_lvMbcuCEq7-47" style="edgeStyle=orthogonalEdgeStyle;rounded=0;orthogonalLoop=1;jettySize=auto;html=1;entryX=1;entryY=0.5;entryDx=0;entryDy=0;" edge="1" parent="1" target="dlJ6QBAWJ_lvMbcuCEq7-36">
          <mxGeometry relative="1" as="geometry">
            <mxPoint x="360" y="210" as="sourcePoint" />
            <mxPoint x="340" y="290" as="targetPoint" />
          </mxGeometry>
        </mxCell>
      </root>
    </mxGraphModel>
  </diagram>
</mxfile>
